<svg xmlns="http://www.w3.org/2000/svg" width="512" height="512" viewBox="0 0 512 512" fill="none"><metadata><rdf:RDF xmlns:rdf="http://www.w3.org/1999/02/22-rdf-syntax-ns#" xmlns:dc="http://purl.org/dc/elements/1.1/"><rdf:Description><dc:creator>RealFaviconGenerator</dc:creator><dc:source>https://realfavicongenerator.net</dc:source></rdf:Description></rdf:RDF></metadata><g clip-path="url(#clip0_1_2)">
<circle cx="256" cy="256" r="256" fill="url(#paint0_linear_1_2)"></circle>
<path d="M399.683 279.036L396.305 182.322L254.766 305.757L258.188 403.744L399.683 279.036Z" fill="white"></path>
<rect x="275.276" y="157.902" width="76.1669" height="88.2406" transform="rotate(-41 275.276 157.902)" fill="#D9D9D9"></rect>
<path d="M275.533 42L332.756 107.956L275.289 157.91L275.533 42Z" fill="#D9D9D9"></path>
<path d="M113.177 232.707L116.555 329.421L258.094 205.987L254.672 108L113.177 232.707Z" fill="white"></path>
<rect x="237.584" y="353.842" width="76.1669" height="88.2406" transform="rotate(139 237.584 353.842)" fill="#D9D9D9"></rect>
<path d="M237.327 469.743L180.104 403.788L237.571 353.833L237.327 469.743Z" fill="#D9D9D9"></path>
</g><defs>
<linearGradient id="paint0_linear_1_2" x1="0" y1="256" x2="512" y2="256" gradientUnits="userSpaceOnUse">
<stop stop-color="#8C52FF"></stop>
<stop offset="1" stop-color="#1C0B59"></stop>
</linearGradient>
<clipPath id="clip0_1_2">
<rect width="512" height="512" fill="white"></rect>
</clipPath>
</defs></svg>